# xmcd
#
# Track frame offsets:
#  150
#  38797
#  62035
#  86528
#  102633
#  119407
#  148469
#  162986
#  175191
#  186141
#
# Disc length: 2750 seconds
#
# Revision: 0
# Processed by: cddbd v1.5.1PL2 Copyright (c) Steve Scherf et al.
# Submitted via: Collectorz.com_Music_Collector 6.11
#
DISCID=900abc0a
DTITLE=Bon Jovi - This Precious Moments [CD2)
DYEAR=2003
DGENRE=Rock
TTITLE0=These Days
TTITLE1=Never Say Goodbye
TTITLE2=Livin' On A Prayer
TTITLE3=Everyday
TTITLE4=Misunderstood
TTITLE5=Bed Of Roses
TTITLE6=All About Lovin' You
TTITLE7=Everyday
TTITLE8=Love For Sale
TTITLE9=Wanted Dead Or Alive
EXTD=
EXTT0=
EXTT1=
EXTT2=
EXTT3=
EXTT4=
EXTT5=
EXTT6=
EXTT7=
EXTT8=
EXTT9=
PLAYORDER=
